<svg xmlns="http://www.w3.org/2000/svg" data-name="Layer 1" width="431.64392" height="470.98112" viewBox="0 0 431.64392 470.98112" xmlns:xlink="http://www.w3.org/1999/xlink"><path d="M557.588,458.94531a1.5,1.5,0,0,1-2.12,2.12q-18.38992-15.765-36.78-31.51a.17713.17713,0,0,0-.05-.04,22.65308,22.65308,0,0,1-2.41-2.09c-11.41-1.33-23.95-5.73-35.83-7.64-10.49,1.56-20.94995,3.42-31.47,4.8a208.18867,208.18867,0,0,1-27.66,1.98c-7.53-.04-15.64-.09-22.47-3.65-7.1-3.7-11.05-10.98-12.87-18.46a72.31006,72.31006,0,0,1-1.75-11.65V368.41534c.97-10.62006,3.93-21.14,11.96-28.55,12.05-11.12,30.09-11.41,45.51-11.72a424.93833,424.93833,0,0,1,55.03,2.41c14.9,1.64,30.57,3.23,44.35,9.58a42.1812,42.1812,0,0,1,15.55,11.65,35.90832,35.90832,0,0,1,7.51,20.88c.73,16.09-6.59,30.81-10.6,46C550.00806,431.8153,548.048,447.7553,557.588,458.94531Z" transform="translate(-384.17804 -214.50944)" fill="#f2f2f2"/><path d="M520.08121,431.09623q18.64437,15.98073,37.29385,31.95546a1.50092,1.50092,0,0,0,2.12132-2.12132c-9.5394-11.18177-7.57921-27.1223-4.10181-40.27948,4.015-15.19137,11.33462-29.90621,10.602-45.99227a35.85321,35.85321,0,0,0-7.51215-20.883,42.09993,42.09993,0,0,0-15.54591-11.648c-13.77942-6.35-29.44648-7.947-44.35321-9.58287a424.61174,424.61174,0,0,0-55.02348-2.41341c-15.42454.31718-33.46786.59885-45.51709,11.72206-10.97336,10.13-12.47214,26.06025-12.36632,40.125.0613,8.14863.21764,16.51833,2.15476,24.47079,1.82095,7.47556,5.76981,14.75679,12.87206,18.45572,6.83133,3.55782,14.94718,3.61349,22.47014,3.64976a205.77461,205.77461,0,0,0,27.65867-1.985c18.34207-2.39924,36.509-6.27465,54.99948-7.4456,4.52479-.28654,9.06315-.41411,13.59663-.31938,1.93125.04035,1.931-2.95965,0-3-17.97865-.37568-35.77246,2.71172-53.4616,5.52338-17.10966,2.71955-34.60021,5.2833-51.9671,3.90741a31.57346,31.57346,0,0,1-11.04918-2.55626,19.93685,19.93685,0,0,1-8.25029-7.28316c-4.52125-7.04117-5.37789-15.8614-5.76844-24.07575a148.65989,148.65989,0,0,1,.19744-21.34062c.66633-6.88371,2.271-13.86613,5.93653-19.809,8.3613-13.55592,25.078-16.08622,39.69458-16.76156a412.35258,412.35258,0,0,1,53.46774,1.13473q13.49868,1.13355,26.91066,3.14132a118.04406,118.04406,0,0,1,19.67578,4.45311,50.20506,50.20506,0,0,1,16.9495,9.00927A31.54284,31.54284,0,0,1,562.17724,368.338c3.44341,15.45709-3.38189,30.8857-7.89221,45.35067-4.02049,12.894-7.45044,28.03751-2.037,41.04793a31.24047,31.24047,0,0,0,5.127,8.31513l2.12132-2.12132q-18.64436-15.98071-37.29385-31.95546c-1.45862-1.25024-3.59015.86233-2.12132,2.12132Z" transform="translate(-384.17804 -214.50944)" fill="#e6e6e6"/><path d="M467.11828,361.29689H421.89767a1.56456,1.56456,0,1,1,0-3.12911h45.22061a1.56456,1.56456,0,0,1,0,3.12911Z" transform="translate(-384.17804 -214.50944)" fill="#fff"/><path d="M467.11828,394.6605H421.89767a1.56455,1.56455,0,1,1,0-3.1291h45.22061a1.56455,1.56455,0,0,1,0,3.1291Z" transform="translate(-384.17804 -214.50944)" fill="#fff"/><path d="M503.84456,377.98963H421.89767a1.56455,1.56455,0,1,1,0-3.1291h81.94689a1.56455,1.56455,0,0,1,0,3.1291Z" transform="translate(-384.17804 -214.50944)" fill="#fff"/><path d="M607.588,534.94531a1.5,1.5,0,0,1-2.12,2.12q-18.38992-15.765-36.78-31.51a.17713.17713,0,0,0-.05-.04,22.65308,22.65308,0,0,1-2.41-2.09c-11.41-1.33-23.95-5.73-35.83-7.64-10.49,1.56-20.94995,3.42-31.47,4.8a208.18867,208.18867,0,0,1-27.66,1.98c-7.53-.04-15.64-.09-22.47-3.65-7.1-3.7-11.05-10.98-12.87-18.46a72.31006,72.31006,0,0,1-1.75-11.65V444.41534c.97-10.62006,3.93-21.14,11.96-28.55,12.05-11.12,30.09-11.41,45.51-11.72a424.93833,424.93833,0,0,1,55.03,2.41c14.9,1.64,30.57,3.23,44.35,9.58a42.1812,42.1812,0,0,1,15.55,11.65,35.90832,35.90832,0,0,1,7.51,20.88c.73,16.09-6.59,30.81-10.6,46C600.00806,507.8153,598.048,523.7553,607.588,534.94531Z" transform="translate(-384.17804 -214.50944)" fill="#f2f2f2"/><path d="M570.08121,507.09623q18.64437,15.98073,37.29385,31.95546a1.50092,1.50092,0,0,0,2.12132-2.12132c-9.5394-11.18177-7.57921-27.1223-4.10181-40.27948,4.015-15.19137,11.33462-29.90621,10.602-45.99227a35.85321,35.85321,0,0,0-7.51215-20.883,42.09993,42.09993,0,0,0-15.54591-11.648c-13.77942-6.35-29.44648-7.947-44.35321-9.58287a424.61174,424.61174,0,0,0-55.02348-2.41341c-15.42454.31718-33.46786.59885-45.51709,11.72206-10.97336,10.13-12.47214,26.06025-12.36632,40.125.0613,8.14863.21764,16.51833,2.15476,24.47079,1.82095,7.47556,5.76981,14.75679,12.87206,18.45572,6.83133,3.55782,14.94718,3.61349,22.47014,3.64976a205.77461,205.77461,0,0,0,27.65867-1.985c18.34207-2.39924,36.509-6.27465,54.99948-7.4456,4.52479-.28654,9.06315-.41411,13.59663-.31938,1.93125.04035,1.931-2.95965,0-3-17.97865-.37568-35.77246,2.71172-53.4616,5.52338-17.10966,2.71955-34.60021,5.2833-51.9671,3.90741a31.57346,31.57346,0,0,1-11.04918-2.55626,19.93685,19.93685,0,0,1-8.25029-7.28316c-4.52125-7.04117-5.37789-15.8614-5.76844-24.07575a148.65989,148.65989,0,0,1,.19744-21.34062c.66633-6.88371,2.271-13.86613,5.93653-19.809,8.3613-13.55592,25.078-16.08622,39.69458-16.76156a412.35258,412.35258,0,0,1,53.46774,1.13473q13.49868,1.13355,26.91066,3.14132a118.04406,118.04406,0,0,1,19.67578,4.45311,50.20506,50.20506,0,0,1,16.9495,9.00927A31.54284,31.54284,0,0,1,612.17724,444.338c3.44341,15.45709-3.38189,30.8857-7.89221,45.35067-4.02049,12.894-7.45044,28.03751-2.037,41.04793a31.24047,31.24047,0,0,0,5.127,8.31513l2.12132-2.12132q-18.64436-15.98072-37.29385-31.95546c-1.45862-1.25024-3.59015.86233-2.12132,2.12132Z" transform="translate(-384.17804 -214.50944)" fill="#e6e6e6"/><path d="M517.11828,437.29689H471.89767a1.56456,1.56456,0,1,1,0-3.12911h45.22061a1.56456,1.56456,0,0,1,0,3.12911Z" transform="translate(-384.17804 -214.50944)" fill="#fff"/><path d="M517.11828,470.6605H471.89767a1.56455,1.56455,0,1,1,0-3.1291h45.22061a1.56455,1.56455,0,0,1,0,3.1291Z" transform="translate(-384.17804 -214.50944)" fill="#fff"/><path d="M553.84456,453.98963H471.89767a1.56455,1.56455,0,1,1,0-3.1291h81.94689a1.56455,1.56455,0,0,1,0,3.1291Z" transform="translate(-384.17804 -214.50944)" fill="#fff"/><polygon points="335.505 447.627 345.364 447.543 349.728 408.631 335.178 408.753 335.505 447.627" fill="#ffb6b6"/><path d="M749.33026,674.204,733.5845,663.52409l-.05942-7.05495-3.38609.22675-10.49558.7235-2.57317.17119-1.86759,24.93457,7.396-.06707,1.26029-6.991,3.43148,6.95557,19.60129-.16356a4.40843,4.40843,0,0,0,2.43856-8.05509Z" transform="translate(-384.17804 -214.50944)" fill="#2f2e41"/><polygon points="237.201 443.782 246.948 445.264 257.428 407.535 243.043 405.349 237.201 443.782" fill="#ffb6b6"/><path d="M648.73742,674.90864l-13.85287-13.04173,1.06013-6.97509-3.3792-.3131-10.4775-.95007-2.56775-.239-5.79815,24.32287,7.313,1.10665,2.353-6.70272,2.285,7.41172,19.37919,2.94694a4.40842,4.40842,0,0,0,3.68509-7.56644Z" transform="translate(-384.17804 -214.50944)" fill="#2f2e41"/><path d="M715.14882,390.27349l27.95281,50.06412s-1.16637,102.9647,2.54851,106.7837,7.07835,7.24421,3.71487,7.21334-7.43443,8.15323-7.43443,8.15323l-6.957,77.36439h-17.543s-12.344-45.623-9.71291-71.64l-20.7821-95.07681s-14.93043,89.91336-17.62121,92.60414-4.31392,2.67163-1.48427,5.372,0,8.80758,0,8.80758L638.33249,641.14l-16-2.01786s2.77382-49.97893,12.433-71.43483V466.2925c-.7276,8.69349,33.30327-79.29559,12.49294-72.69149C653.84233,391.51162,715.14882,390.27349,715.14882,390.27349Z" transform="translate(-384.17804 -214.50944)" fill="#2f2e41"/><path d="M702.32619,270.96533H679.21743l-3.27166,13.0868-17.76773,4.9132s-8.78843,58.28-1.40743,62.98089,2.23433,19.4057,2.23433,19.4057-18.381,19.85147-16.17527,22.79243,6.68065-1.534,1.50222,3.64445-8.11938,4.44318-6.6489,5.91366a9.36911,9.36911,0,0,1,2.06932,3.26516l-6.34181,16.51284s33.68208,6.69063,50.59259-2.86748,54.40774,8.82287,54.40774,8.82287-1.92862-9.65074-3.53765-11.07491-5.36049,2.17677-2.74952-2.56465,4.81669-2.53571,2.611-4.74143-11.76383-31.61531-11.76383-31.61531-7.3524-16.17527.73524-22.79243,11.16714-28.3212,11.16714-28.3212L725.178,288.96533l-16.1768-3.63645Z" transform="translate(-384.17804 -214.50944)" fill="#e6e6e6"/><path d="M610.85108,421.2314l5.55025-22.24611-12.26588-4.9437-5.03121,23.72876a7.67536,7.67536,0,1,0,11.74684,3.46105Z" transform="translate(-384.17804 -214.50944)" fill="#ffb6b6"/><path d="M664.76326,287.47814l-.36607-.063a21.25927,21.25927,0,0,0-18.8536,6.14431c-6.28283,6.4639-34.32921,54.53486-33.31973,62.56884.94141,7.49226,1.30379,5.82559-2.12228,9.65106s-4.72984-2.00018-4.78261,5.96427,2.99039,7.89513-.24421,9.84252-5.37342.59082-4.78261,5.96427-.31355,6.79931-.505,8.67738-4.83541,13.9287-4.83541,13.9287,13.668,3.67026,19.18,9.1658c0,0,.627-13.59864,3.4095-14.8331s5.37346-.59083,4.59118-4.08619-4.79917-5.04339.12211-4.92128S634.7771,369.433,634.7771,369.433l32.86851-59.96884Z" transform="translate(-384.17804 -214.50944)" fill="#e6e6e6"/><path d="M738.939,432.25143l.98747-22.90675,13.16435-1.26164-1.90572,24.1813a7.67536,7.67536,0,1,1-12.2461-.01291Z" transform="translate(-384.17804 -214.50944)" fill="#ffb6b6"/><path d="M725.178,288.69973l.36891.0434a21.25929,21.25929,0,0,1,16.33658,11.23952c4.19142,7.98048,17.45139,62.03221,14.20464,69.44992-3.02781,6.91756-2.90258,5.21655-.70225,9.85667s5.10291-.57649,2.89452,7.07585-5.10692,6.72272-2.55751,9.50758,4.98517,2.09065,2.89452,7.07584-1.62784,6.609-1.977,8.46425.68616,14.72818.68616,14.72818-14.14767-.35719-20.99209,3.34925c0,0,3.25575-13.218.93771-15.191s-4.98521-2.09067-3.24364-5.22061,6.03255-3.47505,1.27875-4.7538-4.61994-28.53074-4.61994-28.53074L716.178,308.96533Z" transform="translate(-384.17804 -214.50944)" fill="#e6e6e6"/><path d="M638.26523,255.52463c-.18331,7.88781,2.7645,15.52548,6.99928,22.23395a42.179,42.179,0,0,1,5.87925-10.87847,33.86374,33.86374,0,0,0,3.6039,21.4459,4.5373,4.5373,0,0,0,.3858.2474c3.45178,2.07637,7.828,2.91738,11.56208,1.41772-7.71521-8.31653-8.69707-22.09574-2.2287-31.424,1.83132-2.64693,4.19973-4.98793,5.334-8.00021,1.7909-4.80623.06935-10.098-1.01666-15.109-1.0155-4.66373-1.19325-10.2136,1.93561-13.63153a3.28811,3.28811,0,0,0-3.01349-1.38749c-1.92912.27251-3.33332,1.94928-4.22765,3.67627-.89433,1.72693-1.48416,3.641-2.73053,5.1326-2.30811,2.79193-6.23877,3.452-9.55123,4.92344C643.17483,237.74433,638.45754,246.74769,638.26523,255.52463Z" transform="translate(-384.17804 -214.50944)" fill="#2f2e41"/><path d="M705.791,251.01472c-.45842-1.60447,2.70126,8.2033,1.17658,8.38036-6.94434.79667-16.47713,4.944-21.31381,6.87886-.21783-.02532-.43565-.0506-.647-.0822-.5189-.05693-1.025-.13913-1.52468-.23395-11.26213-2.13085-15.593-19.4308-15.593-19.58887,0-.77772,1.86657-22.13839,4.807-22.45454a21.67412,21.67412,0,0,1,2.32545-.12647h7.29668a33.91171,33.91171,0,0,1,4.58042-.6639h.01282c14.68943-1.11918,26.27187,7.83416,25.18922,18.7287-.00641.01262-.01924.02528-.02561.03793-.31394.4679-.5894.91052-.83284,1.33415-.237.39835-.43562.77771-.60856,1.13813-1.33891,2.78213,2.10272,6.28291-.17938,6.93634-3.03521.86906,7.9827,29.43352-4.031,29.43352C712.267,282.39426,707.05559,255.44081,705.791,251.01472Z" transform="translate(-384.17804 -214.50944)" fill="#2f2e41"/><circle cx="308.49985" cy="35.98994" r="17.27578" fill="#ffb6b6"/><path d="M712.10067,242.79483c-.28829.15174-.57016.29083-.85845.43-.30107.14541-.60219.29087-.90326.42363-5.78482,2.62405-10.49337,2.91489-13.35055-.85359a15.97212,15.97212,0,0,0-1.31327-5.754,9.24834,9.24834,0,0,1-1.52468,5.754H688.3977c-5.92574,3.93288-8.96869,4.34389-4.85592,17.25543,1.14674,3.59778,5.70627,24.5332,3.91254,27.63781-.51891-.05692-6.03941-22.9877-6.53908-23.08252-11.26212-2.13085-18.41784-20.68525-17.50175-21.73485a19.34424,19.34424,0,0,1,2.00514-8.60558,19.79367,19.79367,0,0,1,7.52088-8.182,34.88081,34.88081,0,0,1,6.009-2.25731c.05126-.01266.09611-.02532.14733-.03794.63421-.17073,1.28124-.3288,1.92828-.4616a35.47076,35.47076,0,0,1,4.04872-.61331c.09611-.00633.19218-.01266.28188-.01266a3.05084,3.05084,0,0,1,1.54388.42367c.00641,0,.00641.00629.01282.00629a2.90664,2.90664,0,0,1,.85845.76509,2.94022,2.94022,0,0,1,.6278,1.82736h6.40621q.35553,0,.71108.019a17.17691,17.17691,0,0,1,16.56007,16.14894C712.09426,242.19414,712.10067,242.4913,712.10067,242.79483Z" transform="translate(-384.17804 -214.50944)" fill="#2f2e41"/><circle cx="290.15006" cy="11.38139" r="11.38139" fill="#2f2e41"/><path d="M752.47273,667.80325a2.26935,2.26935,0,0,0,1.64468-3.93333l-.1555-.61819q.03072-.07428.06179-.1484a6.09416,6.09416,0,0,1,11.24138.04177c1.83859,4.42817,4.17943,8.86389,4.7558,13.546a18.02889,18.02889,0,0,1-.31649,6.20046,72.28135,72.28135,0,0,0,6.57516-30.02077,69.76616,69.76616,0,0,0-.43275-7.78294q-.3585-3.17781-.99471-6.31034A73.11887,73.11887,0,0,0,760.352,607.78784a19.459,19.459,0,0,1-8.093-8.39652,14.84338,14.84338,0,0,1-1.34991-4.05618c.394.05168,1.48556-5.94866,1.1884-6.31679.54906-.83317,1.53178-1.24733,2.13144-2.06035,2.98232-4.0434,7.0912-3.33741,9.23621,2.15727,4.58223,2.31266,4.62659,6.14806,1.815,9.83683-1.78878,2.34682-2.03456,5.52233-3.60409,8.03478.16151.20671.32945.407.49091.61366a73.59189,73.59189,0,0,1,7.681,12.1686,30.59244,30.59244,0,0,1,1.8264-14.20959c1.74819-4.21732,5.02491-7.76915,7.91045-11.415a6.27922,6.27922,0,0,1,11.184,3.08332q.00887.08063.01731.1612-.6429.36267-1.25863.76991a3.0782,3.0782,0,0,0,1.24106,5.60175l.06277.00967a30.628,30.628,0,0,1-.80734,4.57938c3.70179,14.31579-4.29011,19.52989-15.70147,19.76412-.25191.12916-.49739.25833-.74929.38109a75.11456,75.11456,0,0,1,4.04326,19.02779,71.24446,71.24446,0,0,1-.05167,11.50322l.01938-.13562a18.8256,18.8256,0,0,1,6.42661-10.87027c4.9456-4.06264,11.93282-5.55869,17.26825-8.82426a3.533,3.533,0,0,1,5.41122,3.43708l-.02182.14261a20.67645,20.67645,0,0,0-2.31872,1.11733q-.64288.36276-1.25863.76992a3.07824,3.07824,0,0,0,1.24107,5.6018l.06282.00965c.04519.00646.084.01294.12911.01943a30.65467,30.65467,0,0,1-5.63854,8.82923c-2.31464,12.49712-12.256,13.68282-22.89023,10.04353h-.00648a75.09193,75.09193,0,0,1-5.0444,14.72621H752.92429c-.06464-.20022-.12274-.40692-.1809-.60717a20.47485,20.47485,0,0,0,4.9863-.297c-1.337-1.64059-2.674-3.2941-4.011-4.93463a1.11749,1.11749,0,0,1-.084-.09689c-.67817-.8396-1.36282-1.67283-2.041-2.51246l-.00036-.001a29.99039,29.99039,0,0,1,.87876-7.63984Z" transform="translate(-384.17804 -214.50944)" fill="#f2f2f2"/><path d="M560.15192,684.30056a1.18647,1.18647,0,0,0,1.19006,1.19h253.29a1.19,1.19,0,0,0,0-2.38H561.342A1.18651,1.18651,0,0,0,560.15192,684.30056Z" transform="translate(-384.17804 -214.50944)" fill="#ccc"/><path d="M744.588,432.94531a1.5,1.5,0,0,1-2.12,2.12q-18.38992-15.765-36.78-31.51a.17713.17713,0,0,0-.05-.04,22.65308,22.65308,0,0,1-2.41-2.09c-11.41-1.33-23.95-5.73-35.83-7.64-10.49,1.56-20.94995,3.42-31.47,4.8a208.18867,208.18867,0,0,1-27.66,1.98c-7.53-.04-15.64-.09-22.47-3.65-7.1-3.7-11.05-10.98-12.87-18.46a72.31006,72.31006,0,0,1-1.75-11.65V342.41534c.97-10.62006,3.93-21.14,11.96-28.55,12.05-11.12,30.09-11.41,45.51-11.72a424.93833,424.93833,0,0,1,55.03,2.41c14.9,1.64,30.57,3.23,44.35,9.58a42.1812,42.1812,0,0,1,15.55,11.65,35.90832,35.90832,0,0,1,7.51,20.88c.73,16.09-6.59,30.81-10.6,46C737.00806,405.8153,735.048,421.7553,744.588,432.94531Z" transform="translate(-384.17804 -214.50944)" fill="#a3d698"/><path d="M707.08121,405.09623q18.64437,15.98073,37.29385,31.95546a1.50092,1.50092,0,0,0,2.12132-2.12132c-9.5394-11.18177-7.57921-27.1223-4.10181-40.27948,4.015-15.19137,11.33462-29.90621,10.602-45.99227a35.85321,35.85321,0,0,0-7.51215-20.883,42.09993,42.09993,0,0,0-15.54591-11.648c-13.77942-6.35-29.44648-7.947-44.35321-9.58287a424.61174,424.61174,0,0,0-55.02348-2.41341c-15.42454.31718-33.46786.59885-45.51709,11.72206-10.97336,10.13-12.47214,26.06025-12.36632,40.125.0613,8.14863.21764,16.51833,2.15476,24.47079,1.821,7.47556,5.76981,14.75679,12.87206,18.45572,6.83133,3.55782,14.94718,3.61349,22.47014,3.64976a205.77461,205.77461,0,0,0,27.65867-1.985c18.34207-2.39924,36.509-6.27465,54.99948-7.4456,4.52479-.28654,9.06315-.41411,13.59663-.31938,1.93125.04035,1.931-2.95965,0-3-17.97865-.37568-35.77246,2.71172-53.4616,5.52338-17.10966,2.71955-34.60021,5.2833-51.9671,3.90741a31.57346,31.57346,0,0,1-11.04918-2.55626,19.93685,19.93685,0,0,1-8.25029-7.28316c-4.52125-7.04117-5.37789-15.8614-5.76844-24.07575a148.65989,148.65989,0,0,1,.19744-21.34062c.66633-6.88371,2.271-13.86613,5.93653-19.809,8.3613-13.55592,25.078-16.08622,39.69458-16.76156a412.35258,412.35258,0,0,1,53.46774,1.13473q13.49868,1.13355,26.91066,3.14132a118.04406,118.04406,0,0,1,19.67578,4.45311,50.20506,50.20506,0,0,1,16.9495,9.00927A31.54284,31.54284,0,0,1,749.17724,342.338c3.44341,15.45709-3.38189,30.8857-7.89221,45.35067-4.02049,12.894-7.45044,28.03751-2.037,41.04793a31.24047,31.24047,0,0,0,5.127,8.31513l2.12132-2.12132q-18.64436-15.98071-37.29385-31.95546c-1.45862-1.25024-3.59015.86233-2.12132,2.12132Z" transform="translate(-384.17804 -214.50944)" fill="#3f3d56"/><path d="M654.11828,335.29689H608.89767a1.56456,1.56456,0,1,1,0-3.12911h45.22061a1.56456,1.56456,0,0,1,0,3.12911Z" transform="translate(-384.17804 -214.50944)" fill="#fff"/><path d="M654.11828,368.6605H608.89767a1.56455,1.56455,0,1,1,0-3.1291h45.22061a1.56455,1.56455,0,0,1,0,3.1291Z" transform="translate(-384.17804 -214.50944)" fill="#fff"/><path d="M690.84456,351.98963H608.89767a1.56455,1.56455,0,1,1,0-3.1291h81.94689a1.56455,1.56455,0,0,1,0,3.1291Z" transform="translate(-384.17804 -214.50944)" fill="#fff"/></svg>